<svg width="32" height="32" viewBox="0 0 32 32" fill="none" xmlns="http://www.w3.org/2000/svg">
<path d="M22.6667 12.2106L22.5656 10.8476C22.4729 9.59904 21.394 8.63166 20.0939 8.63166H17.4453M8 25.3334H6.47804C5.04 25.3334 3.90397 24.1586 4.00642 22.7775L4.89139 10.8476C4.98402 9.59904 6.063 8.63166 7.36301 8.63166H10.0116M10.0116 8.63166V6.2457C10.0116 4.2691 11.6757 2.66675 13.7285 2.66675C15.7812 2.66675 17.4453 4.2691 17.4453 6.2457V8.63166M10.0116 8.63166H17.4453M22.6667 20.0001C22.6667 21.4728 21.4728 22.6667 20 22.6667C18.5272 22.6667 17.3333 21.4728 17.3333 20.0001M14.6667 28.0001H25.3333C26.8061 28.0001 28 26.8062 28 25.3334V18.6667C28 17.194 26.8061 16.0001 25.3333 16.0001H14.6667C13.1939 16.0001 12 17.194 12 18.6667V25.3334C12 26.8062 13.1939 28.0001 14.6667 28.0001Z" stroke="#3753AF" stroke-width="1.5" stroke-linecap="round"/>
</svg>
